<svg width="96" height="96" viewBox="0 0 96 96" fill="none" xmlns="http://www.w3.org/2000/svg">
  <path d="M65 42V31C65 21.6112 57.3888 14 48 14C38.6112 14 31 21.6112 31 31V42" stroke="#FFD44A" stroke-width="10" stroke-linecap="round"/>
  <path d="M26 38H70C75.5228 38 80 42.4772 80 48V75C80 80.5228 75.5228 85 70 85H26C20.4772 85 16 80.5228 16 75V48C16 42.4772 20.4772 38 26 38Z" fill="#FFC21F"/>
  <path d="M60 38H70C75.5228 38 80 42.4772 80 48V75C80 80.5228 75.5228 85 70 85H60C65.5228 85 70 80.5228 70 75V48C70 42.4772 65.5228 38 60 38Z" fill="#E4A91B"/>
  <circle cx="48" cy="60" r="7" fill="#8CC5FF"/>
  <path d="M45 65H51V75H45V65Z" fill="#8CC5FF"/>
  <circle cx="72" cy="27" r="11" stroke="#FFE179" stroke-width="6"/>
  <path d="M64 35L54 45" stroke="#FFE179" stroke-width="6" stroke-linecap="round"/>
  <path d="M56 43L61 48" stroke="#FFE179" stroke-width="5" stroke-linecap="round"/>
  <path d="M52 47L56 51" stroke="#FFE179" stroke-width="5" stroke-linecap="round"/>
</svg>
